<svg width="40" height="39" viewBox="0 0 40 39" fill="none" xmlns="http://www.w3.org/2000/svg">
<path d="M5.78 3.8999H34.24C35.22 3.8999 36 4.6604 36 5.6159V33.3839C36 34.3199 35.22 35.0999 34.24 35.0999H26.08V23.0099H30.24L30.86 18.3104H26.08V15.3074C26.08 13.9424 26.48 13.0064 28.48 13.0064H31.04V8.7944C30.6 8.7359 29.08 8.6189 27.32 8.6189C23.62 8.6189 21.1 10.8029 21.1 14.8394V18.3104H16.92V23.0099H21.1V35.0999H5.78C5.31136 35.0999 4.86161 34.9198 4.52837 34.5985C4.19512 34.2772 4.00527 33.8408 4 33.3839V5.6159C4 4.6604 4.8 3.8999 5.78 3.8999Z" fill="white"/>
</svg>
