<svg width="39" height="39" viewBox="0 0 39 39" fill="none" xmlns="http://www.w3.org/2000/svg">
<path d="M32.3333 4C33.3058 4 34.2384 4.3629 34.9261 5.00885C35.6137 5.65481 36 6.53092 36 7.44444V31.5556C36 32.4691 35.6137 33.3452 34.9261 33.9911C34.2384 34.6371 33.3058 35 32.3333 35H6.66667C5.69421 35 4.76158 34.6371 4.07394 33.9911C3.38631 33.3452 3 32.4691 3 31.5556V7.44444C3 6.53092 3.38631 5.65481 4.07394 5.00885C4.76158 4.3629 5.69421 4 6.66667 4H32.3333ZM31.4167 30.6944V21.5667C31.4167 20.0776 30.787 18.6496 29.6661 17.5967C28.5453 16.5437 27.0251 15.9522 25.44 15.9522C23.8817 15.9522 22.0667 16.8478 21.1867 18.1911V16.2794H16.0717V30.6944H21.1867V22.2039C21.1867 20.8778 22.3233 19.7928 23.735 19.7928C24.4157 19.7928 25.0686 20.0468 25.5499 20.499C26.0313 20.9511 26.3017 21.5644 26.3017 22.2039V30.6944H31.4167ZM10.1133 13.5756C10.9302 13.5756 11.7136 13.2707 12.2912 12.7281C12.8688 12.1855 13.1933 11.4496 13.1933 10.6822C13.1933 9.08056 11.8183 7.77167 10.1133 7.77167C9.2916 7.77167 8.50353 8.07831 7.92248 8.62415C7.34143 9.16998 7.015 9.9103 7.015 10.6822C7.015 12.2839 8.40833 13.5756 10.1133 13.5756ZM12.6617 30.6944V16.2794H7.58333V30.6944H12.6617Z" fill="white"/>
</svg>
