<svg width="39" height="39" viewBox="0 0 39 39" fill="none" xmlns="http://www.w3.org/2000/svg">
<path d="M21.1705 3.25C22.9986 3.25487 23.9265 3.26463 24.7276 3.28738L25.0429 3.29875C25.4069 3.31175 25.766 3.328 26.1999 3.3475C27.9289 3.42875 29.1086 3.70175 30.1438 4.10313C31.2163 4.51588 32.1198 5.07487 33.0233 5.97675C33.8499 6.78881 34.4893 7.77152 34.8969 8.85625C35.2983 9.89137 35.5713 11.0711 35.6525 12.8017C35.672 13.234 35.6883 13.5931 35.7013 13.9587L35.711 14.274C35.7354 15.0735 35.7451 16.0014 35.7484 17.8295L35.75 19.0417V21.1705C35.754 22.3558 35.7415 23.5411 35.7126 24.726L35.7029 25.0412C35.6899 25.4069 35.6736 25.766 35.6541 26.1982C35.5729 27.9289 35.2966 29.107 34.8969 30.1437C34.4893 31.2285 33.8499 32.2112 33.0233 33.0232C32.2112 33.8499 31.2285 34.4893 30.1438 34.8969C29.1086 35.2982 27.9289 35.5712 26.1999 35.6525L25.0429 35.7012L24.7276 35.711C23.9265 35.7337 22.9986 35.7451 21.1705 35.7484L19.9583 35.75H17.8311C16.6453 35.7542 15.4595 35.7417 14.274 35.7126L13.9588 35.7029C13.573 35.6883 13.1873 35.6715 12.8018 35.6525C11.0728 35.5712 9.89301 35.2982 8.85626 34.8969C7.77211 34.4891 6.78998 33.8497 5.97838 33.0232C5.15117 32.2113 4.51119 31.2286 4.10313 30.1437C3.70176 29.1086 3.42876 27.9289 3.34751 26.1982L3.29876 25.0412L3.29063 24.726C3.26068 23.5411 3.24714 22.3558 3.25001 21.1705V17.8295C3.24551 16.6442 3.25743 15.4589 3.28576 14.274L3.29713 13.9587C3.31013 13.5931 3.32638 13.234 3.34588 12.8017C3.42713 11.0711 3.70013 9.893 4.10151 8.85625C4.51051 7.77107 5.15162 6.78833 5.98001 5.97675C6.79113 5.15052 7.77269 4.51112 8.85626 4.10313C9.89301 3.70175 11.0711 3.42875 12.8018 3.3475C13.234 3.328 13.5948 3.31175 13.9588 3.29875L14.274 3.289C15.4589 3.26013 16.6442 3.24767 17.8295 3.25162L21.1705 3.25ZM19.5 11.375C17.3451 11.375 15.2785 12.231 13.7548 13.7548C12.231 15.2785 11.375 17.3451 11.375 19.5C11.375 21.6549 12.231 23.7215 13.7548 25.2452C15.2785 26.769 17.3451 27.625 19.5 27.625C21.6549 27.625 23.7215 26.769 25.2453 25.2452C26.769 23.7215 27.625 21.6549 27.625 19.5C27.625 17.3451 26.769 15.2785 25.2453 13.7548C23.7215 12.231 21.6549 11.375 19.5 11.375ZM19.5 14.625C20.1402 14.6249 20.7741 14.7509 21.3657 14.9958C21.9572 15.2407 22.4946 15.5997 22.9474 16.0523C23.4002 16.5049 23.7593 17.0422 24.0044 17.6337C24.2495 18.2251 24.3757 18.859 24.3758 19.4992C24.3759 20.1394 24.2499 20.7733 24.005 21.3648C23.7602 21.9563 23.4012 22.4938 22.9485 22.9466C22.4959 23.3993 21.9586 23.7585 21.3672 24.0036C20.7757 24.2487 20.1418 24.3749 19.5016 24.375C18.2087 24.375 16.9687 23.8614 16.0545 22.9471C15.1402 22.0329 14.6266 20.7929 14.6266 19.5C14.6266 18.2071 15.1402 16.9671 16.0545 16.0529C16.9687 15.1386 18.2087 14.625 19.5016 14.625M28.0329 8.9375C27.4942 8.9375 26.9775 9.15151 26.5966 9.53244C26.2156 9.91337 26.0016 10.43 26.0016 10.9687C26.0016 11.5075 26.2156 12.0241 26.5966 12.4051C26.9775 12.786 27.4942 13 28.0329 13C28.5716 13 29.0883 12.786 29.4692 12.4051C29.8501 12.0241 30.0641 11.5075 30.0641 10.9687C30.0641 10.43 29.8501 9.91337 29.4692 9.53244C29.0883 9.15151 28.5716 8.9375 28.0329 8.9375Z" fill="white"/>
</svg>
