<svg width="149" height="37" viewBox="0 0 149 37" fill="none" xmlns="http://www.w3.org/2000/svg">
<path d="M136.503 36.4527C134.422 36.4527 132.64 36.2477 131.158 35.8378C129.676 35.3962 128.461 34.6709 127.515 33.6617C126.601 32.6525 125.923 31.3121 125.481 29.6407C125.071 27.9692 124.866 25.9035 124.866 23.4436C124.866 20.8575 125.071 18.7287 125.481 17.0572C125.923 15.3542 126.601 14.0296 127.515 13.0835C128.461 12.1058 129.676 11.4278 131.158 11.0493C132.672 10.6394 134.453 10.4344 136.503 10.4344C138.616 10.4344 140.414 10.6394 141.896 11.0493C143.379 11.4593 144.577 12.1531 145.492 13.1308C146.438 14.0769 147.116 15.4015 147.526 17.1045C147.967 18.776 148.188 20.889 148.188 23.4436C148.188 25.9665 147.983 28.0796 147.573 29.7826C147.163 31.4541 146.501 32.7786 145.586 33.7563C144.672 34.734 143.457 35.4278 141.944 35.8378C140.461 36.2477 138.648 36.4527 136.503 36.4527ZM136.503 30.8706C137.355 30.8706 138.065 30.7918 138.632 30.6341C139.231 30.4764 139.704 30.161 140.051 29.688C140.43 29.1834 140.714 28.4265 140.903 27.4173C141.092 26.4081 141.187 25.0835 141.187 23.4436C141.187 21.7721 141.092 20.4475 140.903 19.4698C140.714 18.4606 140.43 17.7195 140.051 17.2464C139.704 16.7418 139.231 16.4107 138.632 16.253C138.065 16.0953 137.355 16.0165 136.503 16.0165C135.683 16.0165 134.974 16.0953 134.375 16.253C133.807 16.4107 133.334 16.7418 132.955 17.2464C132.577 17.7195 132.293 18.4606 132.104 19.4698C131.946 20.4475 131.867 21.7721 131.867 23.4436C131.867 25.0835 131.946 26.4081 132.104 27.4173C132.293 28.4265 132.577 29.1834 132.955 29.688C133.334 30.161 133.807 30.4764 134.375 30.6341C134.974 30.7918 135.683 30.8706 136.503 30.8706Z" fill="#509FFD"/>
<path d="M114.094 7.07556C113.431 7.07556 113.1 6.76018 113.1 6.12943V1.49343C113.1 0.831144 113.431 0.5 114.094 0.5H119.487C119.77 0.5 119.991 0.594613 120.149 0.783839C120.306 0.973063 120.385 1.20959 120.385 1.49343V6.12943C120.385 6.76018 120.086 7.07556 119.487 7.07556H114.094ZM113.242 36.2162V10.8127H120.243V36.2162H113.242Z" fill="#509FFD"/>
<path d="M102.959 36.2635C102.328 36.2635 102.013 35.9481 102.013 35.3173V30.4921C102.013 29.8298 102.328 29.4987 102.959 29.4987H107.027C107.721 29.4987 108.068 29.8298 108.068 30.4921V35.3173C108.068 35.6958 107.958 35.9481 107.737 36.0742C107.548 36.2004 107.311 36.2635 107.027 36.2635H102.959Z" fill="#263F62"/>
<path d="M87.4954 36.5C86.7069 36.5 85.8554 36.4684 84.9408 36.4053C84.0262 36.3738 83.1117 36.3107 82.1971 36.2161C81.2825 36.1215 80.431 36.0111 79.6425 35.885C78.8541 35.7273 78.1918 35.5538 77.6557 35.3646V31.249H88.9145C89.5768 31.249 90.113 31.2017 90.523 31.107C90.9645 30.9809 91.2798 30.7759 91.4691 30.4921C91.6898 30.1767 91.8002 29.7352 91.8002 29.1675V28.3633C91.8002 27.7325 91.5952 27.2437 91.1852 26.8968C90.7753 26.5499 90.0184 26.3764 88.9145 26.3764H84.9408C83.4901 26.3764 82.1813 26.1557 81.0144 25.7141C79.8475 25.2726 78.9172 24.5473 78.2234 23.5381C77.5611 22.5289 77.2299 21.1728 77.2299 19.4697V18.0032C77.2299 16.3948 77.5453 15.0387 78.176 13.9349C78.8068 12.8311 79.8633 11.9954 81.3456 11.4277C82.8278 10.86 84.862 10.5762 87.4481 10.5762C88.4888 10.5762 89.5926 10.6392 90.7595 10.7654C91.9579 10.86 93.0775 11.0019 94.1182 11.1912C95.1905 11.3488 96.042 11.5381 96.6728 11.7588V15.8745H86.0289C85.1143 15.8745 84.4205 16.0322 83.9474 16.3475C83.4743 16.6314 83.2378 17.1833 83.2378 18.0032V18.7601C83.2378 19.3278 83.3482 19.7536 83.5689 20.0374C83.7897 20.2897 84.1209 20.4789 84.5624 20.6051C85.0354 20.6997 85.6189 20.747 86.3127 20.747H90.381C92.9671 20.747 94.8436 21.3462 96.0105 22.5446C97.2089 23.7115 97.8081 25.3357 97.8081 27.4172V29.6879C97.8081 31.3909 97.3981 32.747 96.5781 33.7562C95.7897 34.7339 94.6228 35.4434 93.0775 35.885C91.5637 36.295 89.703 36.5 87.4954 36.5Z" fill="#263F62"/>
<path d="M63.6113 36.5C62.8229 36.5 61.9714 36.4684 61.0568 36.4053C60.1422 36.3738 59.2276 36.3107 58.313 36.2161C57.3984 36.1215 56.5469 36.0111 55.7585 35.885C54.9701 35.7273 54.3078 35.5538 53.7716 35.3646V31.249H65.0305C65.6928 31.249 66.2289 31.2017 66.6389 31.107C67.0804 30.9809 67.3958 30.7759 67.585 30.4921C67.8058 30.1767 67.9162 29.7352 67.9162 29.1675V28.3633C67.9162 27.7325 67.7112 27.2437 67.3012 26.8968C66.8912 26.5499 66.1343 26.3764 65.0305 26.3764H61.0568C59.6061 26.3764 58.2973 26.1557 57.1304 25.7141C55.9635 25.2726 55.0331 24.5473 54.3393 23.5381C53.677 22.5289 53.3459 21.1728 53.3459 19.4697V18.0032C53.3459 16.3948 53.6613 15.0387 54.292 13.9349C54.9228 12.8311 55.9793 11.9954 57.4615 11.4277C58.9438 10.86 60.978 10.5762 63.564 10.5762C64.6048 10.5762 65.7086 10.6392 66.8754 10.7654C68.0739 10.86 69.1935 11.0019 70.2342 11.1912C71.3065 11.3488 72.158 11.5381 72.7887 11.7588V15.8745H62.1448C61.2302 15.8745 60.5364 16.0322 60.0634 16.3475C59.5903 16.6314 59.3538 17.1833 59.3538 18.0032V18.7601C59.3538 19.3278 59.4642 19.7536 59.6849 20.0374C59.9057 20.2897 60.2368 20.4789 60.6783 20.6051C61.1514 20.6997 61.7348 20.747 62.4287 20.747H66.497C69.0831 20.747 70.9596 21.3462 72.1264 22.5446C73.3249 23.7115 73.9241 25.3357 73.9241 27.4172V29.6879C73.9241 31.3909 73.5141 32.747 72.6941 33.7562C71.9057 34.7339 70.7388 35.4434 69.1935 35.885C67.6797 36.295 65.8189 36.5 63.6113 36.5Z" fill="#263F62"/>
<path d="M33.7702 36.5C31.8464 36.5 30.2853 35.9323 29.0869 34.797C27.8885 33.6616 27.2892 32.0848 27.2892 30.0664V27.7957C27.2892 25.8719 27.9673 24.295 29.3234 23.0651C30.6795 21.8036 32.7925 21.1728 35.6624 21.1728H42.1434V19.4225C42.1434 18.6341 42.0015 17.9875 41.7176 17.4829C41.4338 16.9468 40.8977 16.5684 40.1092 16.3476C39.3523 16.0953 38.1854 15.9691 36.6086 15.9691H28.9923V11.9008C30.2222 11.5224 31.6414 11.1912 33.2498 10.9074C34.8898 10.6235 36.8609 10.4816 39.1631 10.4816C41.2761 10.4816 43.0737 10.7339 44.556 11.2385C46.0698 11.7431 47.2051 12.6104 47.962 13.8404C48.7505 15.0703 49.1447 16.7733 49.1447 18.9494V36.2162H43.6099L42.4745 33.5197C42.2538 33.772 41.8753 34.0559 41.3392 34.3712C40.803 34.6866 40.1408 35.0178 39.3523 35.3647C38.5954 35.68 37.7281 35.9481 36.7505 36.1689C35.8044 36.3896 34.8109 36.5 33.7702 36.5ZM37.3182 31.6275C37.6335 31.6275 37.9804 31.5959 38.3589 31.5329C38.7689 31.4383 39.1789 31.3436 39.5888 31.249C40.0304 31.1229 40.4246 31.0125 40.7715 30.9179C41.15 30.7917 41.4496 30.6814 41.6703 30.5867C41.9226 30.4921 42.0803 30.4291 42.1434 30.3975V24.4843L37.8858 24.7681C36.6559 24.8627 35.7413 25.1781 35.1421 25.7142C34.5744 26.2503 34.2906 26.9757 34.2906 27.8903V28.931C34.2906 29.5618 34.4167 30.0821 34.669 30.4921C34.9528 30.9021 35.3155 31.2017 35.757 31.391C36.2301 31.5486 36.7505 31.6275 37.3182 31.6275Z" fill="#263F62"/>
<path d="M11.4008 36.4999C10.4862 36.4999 9.54007 36.4684 8.56241 36.4053C7.61629 36.3738 6.63863 36.3107 5.62943 36.2161C4.65177 36.09 3.72142 35.9638 2.83837 35.8377C1.95532 35.68 1.15112 35.5065 0.425755 35.3173V29.7825C1.37188 29.8771 2.44415 29.9559 3.64257 30.019C4.841 30.0821 6.08673 30.1294 7.37976 30.1609C8.6728 30.1925 9.90275 30.2082 11.0696 30.2082C12.2681 30.2082 13.293 30.1136 14.1445 29.9244C15.0276 29.7036 15.7056 29.3409 16.1787 28.8363C16.6518 28.3002 16.8883 27.5748 16.8883 26.6603V25.383C16.8883 24.3423 16.5729 23.5538 15.9422 23.0177C15.343 22.45 14.4757 22.1662 13.3403 22.1662H10.36C7.01708 22.1662 4.44678 21.4408 2.64914 19.9901C0.883048 18.5078 0 16.0006 0 12.4684V10.7654C0 7.35936 0.97766 4.8679 2.93298 3.29103C4.8883 1.71416 7.67937 0.92572 11.3062 0.92572C12.5992 0.92572 13.8765 0.988795 15.138 1.11495C16.431 1.2411 17.661 1.39878 18.8279 1.58801C20.0263 1.74569 21.0512 1.91915 21.9027 2.10838V7.64319C20.452 7.54858 18.8278 7.45397 17.0302 7.35936C15.2641 7.26474 13.6242 7.21744 12.1104 7.21744C11.0381 7.21744 10.0762 7.32782 9.2247 7.54858C8.40473 7.73781 7.77398 8.11626 7.33245 8.68393C6.89093 9.2516 6.67017 10.0558 6.67017 11.0965V12.0427C6.67017 13.2726 7.01708 14.1557 7.7109 14.6918C8.40473 15.2279 9.42969 15.496 10.7858 15.496H14.2392C16.3522 15.496 18.0867 15.8902 19.4428 16.6787C20.8305 17.4356 21.8554 18.4921 22.5177 19.8482C23.2116 21.2043 23.5585 22.7496 23.5585 24.4842V26.471C23.5585 29.2148 23.0381 31.312 21.9974 32.7628C20.9882 34.2135 19.569 35.2069 17.7398 35.743C15.9422 36.2476 13.8292 36.4999 11.4008 36.4999Z" fill="#263F62"/>
</svg>
