<svg width="149" height="36" viewBox="0 0 149 36" fill="none" xmlns="http://www.w3.org/2000/svg">
<path d="M136.503 35.953C134.422 35.953 132.64 35.748 131.158 35.338C129.676 34.8965 128.461 34.1711 127.515 33.1619C126.601 32.1527 125.923 30.8124 125.481 29.1409C125.071 27.4694 124.866 25.4037 124.866 22.9438C124.866 20.3577 125.071 18.2289 125.481 16.5574C125.923 14.8544 126.601 13.5298 127.515 12.5837C128.461 11.6061 129.676 10.928 131.158 10.5496C132.672 10.1396 134.453 9.93457 136.503 9.93457C138.616 9.93457 140.414 10.1396 141.896 10.5496C143.379 10.9595 144.577 11.6534 145.492 12.631C146.438 13.5771 147.116 14.9017 147.526 16.6047C147.967 18.2762 148.188 20.3892 148.188 22.9438C148.188 25.4668 147.983 27.5798 147.573 29.2828C147.163 30.9543 146.501 32.2788 145.586 33.2565C144.672 34.2342 143.457 34.928 141.944 35.338C140.461 35.748 138.648 35.953 136.503 35.953ZM136.503 30.3708C137.355 30.3708 138.065 30.292 138.632 30.1343C139.231 29.9766 139.704 29.6612 140.051 29.1882C140.43 28.6836 140.714 27.9267 140.903 26.9175C141.092 25.9083 141.187 24.5837 141.187 22.9438C141.187 21.2723 141.092 19.9477 140.903 18.97C140.714 17.9609 140.43 17.2197 140.051 16.7467C139.704 16.2421 139.231 15.9109 138.632 15.7532C138.065 15.5955 137.355 15.5167 136.503 15.5167C135.683 15.5167 134.974 15.5955 134.375 15.7532C133.807 15.9109 133.334 16.2421 132.955 16.7467C132.577 17.2197 132.293 17.9609 132.104 18.97C131.946 19.9477 131.867 21.2723 131.867 22.9438C131.867 24.5837 131.946 25.9083 132.104 26.9175C132.293 27.9267 132.577 28.6836 132.955 29.1882C133.334 29.6612 133.807 29.9766 134.375 30.1343C134.974 30.292 135.683 30.3708 136.503 30.3708Z" fill="#509FFD"/>
<path d="M114.094 6.57556C113.431 6.57556 113.1 6.26018 113.1 5.62943V0.993431C113.1 0.331144 113.431 0 114.094 0H119.487C119.77 0 119.991 0.094613 120.149 0.283839C120.306 0.473063 120.385 0.709594 120.385 0.993431V5.62943C120.385 6.26018 120.086 6.57556 119.487 6.57556H114.094ZM113.242 35.7162V10.3127H120.243V35.7162H113.242Z" fill="#509FFD"/>
<path d="M102.959 35.7633C102.328 35.7633 102.013 35.4479 102.013 34.8172V29.992C102.013 29.3297 102.328 28.9985 102.959 28.9985H107.027C107.721 28.9985 108.068 29.3297 108.068 29.992V34.8172C108.068 35.1956 107.958 35.4479 107.737 35.5741C107.548 35.7002 107.311 35.7633 107.027 35.7633H102.959Z" fill="white"/>
<path d="M87.4954 36C86.7069 36 85.8554 35.9684 84.9408 35.9053C84.0262 35.8738 83.1117 35.8107 82.1971 35.7161C81.2825 35.6215 80.431 35.5111 79.6425 35.385C78.8541 35.2273 78.1918 35.0538 77.6557 34.8646V30.749H88.9145C89.5768 30.749 90.113 30.7017 90.523 30.607C90.9645 30.4809 91.2798 30.2759 91.4691 29.9921C91.6898 29.6767 91.8002 29.2352 91.8002 28.6675V27.8633C91.8002 27.2325 91.5952 26.7437 91.1852 26.3968C90.7753 26.0499 90.0184 25.8764 88.9145 25.8764H84.9408C83.4901 25.8764 82.1813 25.6557 81.0144 25.2141C79.8475 24.7726 78.9172 24.0473 78.2234 23.0381C77.5611 22.0289 77.2299 20.6728 77.2299 18.9697V17.5032C77.2299 15.8948 77.5453 14.5387 78.176 13.4349C78.8068 12.3311 79.8633 11.4954 81.3456 10.9277C82.8278 10.36 84.862 10.0762 87.4481 10.0762C88.4888 10.0762 89.5926 10.1392 90.7595 10.2654C91.9579 10.36 93.0775 10.5019 94.1182 10.6912C95.1905 10.8488 96.042 11.0381 96.6728 11.2588V15.3745H86.0289C85.1143 15.3745 84.4205 15.5322 83.9474 15.8475C83.4743 16.1314 83.2378 16.6833 83.2378 17.5032V18.2601C83.2378 18.8278 83.3482 19.2536 83.5689 19.5374C83.7897 19.7897 84.1209 19.9789 84.5624 20.1051C85.0354 20.1997 85.6189 20.247 86.3127 20.247H90.381C92.9671 20.247 94.8436 20.8462 96.0105 22.0446C97.2089 23.2115 97.8081 24.8357 97.8081 26.9172V29.1879C97.8081 30.8909 97.3981 32.247 96.5781 33.2562C95.7897 34.2339 94.6228 34.9434 93.0775 35.385C91.5637 35.795 89.703 36 87.4954 36Z" fill="white"/>
<path d="M63.6113 36C62.8229 36 61.9714 35.9684 61.0568 35.9053C60.1422 35.8738 59.2276 35.8107 58.313 35.7161C57.3984 35.6215 56.5469 35.5111 55.7585 35.385C54.9701 35.2273 54.3078 35.0538 53.7716 34.8646V30.749H65.0305C65.6928 30.749 66.2289 30.7017 66.6389 30.607C67.0804 30.4809 67.3958 30.2759 67.585 29.9921C67.8058 29.6767 67.9162 29.2352 67.9162 28.6675V27.8633C67.9162 27.2325 67.7112 26.7437 67.3012 26.3968C66.8912 26.0499 66.1343 25.8764 65.0305 25.8764H61.0568C59.6061 25.8764 58.2973 25.6557 57.1304 25.2141C55.9635 24.7726 55.0331 24.0473 54.3393 23.0381C53.677 22.0289 53.3459 20.6728 53.3459 18.9697V17.5032C53.3459 15.8948 53.6613 14.5387 54.292 13.4349C54.9228 12.3311 55.9793 11.4954 57.4615 10.9277C58.9438 10.36 60.978 10.0762 63.564 10.0762C64.6048 10.0762 65.7086 10.1392 66.8754 10.2654C68.0739 10.36 69.1935 10.5019 70.2342 10.6912C71.3065 10.8488 72.158 11.0381 72.7887 11.2588V15.3745H62.1448C61.2302 15.3745 60.5364 15.5322 60.0634 15.8475C59.5903 16.1314 59.3538 16.6833 59.3538 17.5032V18.2601C59.3538 18.8278 59.4642 19.2536 59.6849 19.5374C59.9057 19.7897 60.2368 19.9789 60.6783 20.1051C61.1514 20.1997 61.7348 20.247 62.4287 20.247H66.497C69.0831 20.247 70.9596 20.8462 72.1264 22.0446C73.3249 23.2115 73.9241 24.8357 73.9241 26.9172V29.1879C73.9241 30.8909 73.5141 32.247 72.6941 33.2562C71.9057 34.2339 70.7388 34.9434 69.1935 35.385C67.6797 35.795 65.8189 36 63.6113 36Z" fill="white"/>
<path d="M33.7702 35.9998C31.8464 35.9998 30.2853 35.4322 29.0869 34.2968C27.8885 33.1615 27.2892 31.5846 27.2892 29.5662V27.2955C27.2892 25.3717 27.9673 23.7948 29.3234 22.5649C30.6795 21.3034 32.7925 20.6726 35.6624 20.6726H42.1434V18.9223C42.1434 18.1339 42.0015 17.4874 41.7176 16.9828C41.4338 16.4466 40.8977 16.0682 40.1092 15.8474C39.3523 15.5951 38.1854 15.469 36.6086 15.469H28.9923V11.4006C30.2222 11.0222 31.6414 10.691 33.2498 10.4072C34.8898 10.1234 36.8609 9.98145 39.1631 9.98145C41.2761 9.98145 43.0737 10.2337 44.556 10.7383C46.0698 11.2429 47.2051 12.1102 47.962 13.3402C48.7505 14.5701 49.1447 16.2732 49.1447 18.4492V35.716H43.6099L42.4745 33.0195C42.2538 33.2718 41.8753 33.5557 41.3392 33.8711C40.803 34.1864 40.1408 34.5176 39.3523 34.8645C38.5954 35.1799 37.7281 35.4479 36.7505 35.6687C35.8044 35.8895 34.8109 35.9998 33.7702 35.9998ZM37.3182 31.1273C37.6335 31.1273 37.9804 31.0958 38.3589 31.0327C38.7689 30.9381 39.1789 30.8435 39.5888 30.7489C40.0304 30.6227 40.4246 30.5123 40.7715 30.4177C41.15 30.2916 41.4496 30.1812 41.6703 30.0866C41.9226 29.992 42.0803 29.9289 42.1434 29.8973V23.9841L37.8858 24.2679C36.6559 24.3625 35.7413 24.6779 35.1421 25.214C34.5744 25.7502 34.2906 26.4755 34.2906 27.3901V28.4308C34.2906 29.0616 34.4167 29.582 34.669 29.992C34.9528 30.4019 35.3155 30.7015 35.757 30.8908C36.2301 31.0485 36.7505 31.1273 37.3182 31.1273Z" fill="white"/>
<path d="M11.4008 36C10.4862 36 9.54007 35.9685 8.56241 35.9054C7.61629 35.8738 6.63863 35.8108 5.62943 35.7162C4.65177 35.59 3.72142 35.4639 2.83837 35.3377C1.95532 35.18 1.15112 35.0066 0.425755 34.8173V29.2825C1.37188 29.3771 2.44415 29.456 3.64257 29.5191C4.841 29.5821 6.08673 29.6294 7.37976 29.661C8.6728 29.6925 9.90275 29.7083 11.0696 29.7083C12.2681 29.7083 13.293 29.6137 14.1445 29.4244C15.0276 29.2037 15.7056 28.841 16.1787 28.3364C16.6518 27.8003 16.8883 27.0749 16.8883 26.1603V24.8831C16.8883 23.8423 16.5729 23.0539 15.9422 22.5177C15.343 21.9501 14.4757 21.6662 13.3403 21.6662H10.36C7.01708 21.6662 4.44678 20.9409 2.64914 19.4902C0.883048 18.0079 0 15.5007 0 11.9685V10.2655C0 6.85942 0.97766 4.36796 2.93298 2.79109C4.8883 1.21422 7.67937 0.425781 11.3062 0.425781C12.5992 0.425781 13.8765 0.488856 15.138 0.615006C16.431 0.741156 17.661 0.898843 18.8279 1.08807C20.0263 1.24575 21.0512 1.41921 21.9027 1.60844V7.14325C20.452 7.04864 18.8278 6.95403 17.0302 6.85942C15.2641 6.76481 13.6242 6.7175 12.1104 6.7175C11.0381 6.7175 10.0762 6.82788 9.2247 7.04864C8.40473 7.23787 7.77398 7.61632 7.33245 8.18399C6.89093 8.75166 6.67017 9.55587 6.67017 10.5966V11.5427C6.67017 12.7727 7.01708 13.6557 7.7109 14.1919C8.40473 14.728 9.42969 14.9961 10.7858 14.9961H14.2392C16.3522 14.9961 18.0867 15.3903 19.4428 16.1787C20.8305 16.9356 21.8554 17.9921 22.5177 19.3482C23.2116 20.7043 23.5585 22.2497 23.5585 23.9842V25.9711C23.5585 28.7149 23.0381 30.8121 21.9974 32.2628C20.9882 33.7135 19.569 34.707 17.7398 35.2431C15.9422 35.7477 13.8292 36 11.4008 36Z" fill="white"/>
</svg>
